# xmcd CD database file
#
# Track frame offsets:
#	187
#	17472
#	32275
#	46625
#	62787
#	72920
#	96150
#	112010
#	132912
#	149862
#	160277
#	177160
#	188415
#	202142
#	214235
#	224255
#	239965
#	255632
#	267667
#	279775
#
# Disc length: 3915 seconds
#
# Revision: 0
# Processed by: cddbd v1.5.2PL0 Copyright (c) Steve Scherf et al.
# Submitted via: CDex 1.51
#
DISCID=330f4914
DTITLE=Glenn Miller - Original Recordings Vol 2
DYEAR=1992
DGENRE=Jazz
TTITLE0=Moonlight Serenade - Running Wild
TTITLE1=Tchaikovsky's Piano Concerto
TTITLE2=Little Brown Jug
TTITLE3=Stairway To The Stars - To You
TTITLE4=Londonderry Air (Danny Boy)
TTITLE5=Jim Jam Jump For Jones - Hold Tight
TTITLE6=In The Mood
TTITLE7=Bugle Call Rag Moonlight Serenade
TTITLE8=One o'Clock Jump
TTITLE9=Goin' Home (from "The New World Symphony")
TTITLE10=St Louis Blues
TTITLE11=April In Paris
TTITLE12=Everybody Loves My Baby
TTITLE13=Georgia On My Mind
TTITLE14=Jersey Bounce
TTITLE15=My Blue Heaven
TTITLE16=Skylark
TTITLE17=Caribbean Clipper
TTITLE18=I'm Old Fashoned (from the Columbia film "You Were Never Lovelier")
TTITLE19=Rhapsody In Blue
EXTD=YEAR: 1992
EXTT0=
EXTT1=
EXTT2=
EXTT3=
EXTT4=
EXTT5=
EXTT6=
EXTT7=
EXTT8=
EXTT9=
EXTT10=
EXTT11=
EXTT12=
EXTT13=
EXTT14=
EXTT15=
EXTT16=
EXTT17=
EXTT18=
EXTT19=
PLAYORDER=
